inDegrees=no
num_controls=7
num_derivatives=13
num_iterations=135
num_multipliers=7
num_parameters=0
num_slacks=7
num_states=26
objective=0.521936
objective_accelerations=0.018685
objective_balance=0.002341
objective_effort=0.032643
objective_height=0.457048
objective_ligament=0.011219
solver_duration=1754.291332
status=Solve_Succeeded
success=true
DataType=double
version=3
OpenSimVersion=4.5
endheader
time	/jointset/ground_pelvis/pelvis_tilt/value	/jointset/ground_pelvis/pelvis_tx/value	/jointset/ground_pelvis/pelvis_ty/value	/jointset/hip_l/hip_flexion_l/value	/jointset/hip_l/hip_adduction_l/value	/jointset/hip_l/hip_rotation_l/value	/jointset/back/lumbar_extension/value	/jointset/patellofemoral_l/patellar_flexion_l/value	/jointset/knee_l/knee_flexion_l/value	/jointset/knee_l/knee_adduction_l/value	/jointset/knee_l/knee_rotation_l/value	/jointset/ankle_l/ankle_angle_l/value	/jointset/subtalar_l/subtalar_angle_l/value	/jointset/ground_pelvis/pelvis_tilt/speed	/jointset/ground_pelvis/pelvis_tx/speed	/jointset/ground_pelvis/pelvis_ty/speed	/jointset/hip_l/hip_flexion_l/speed	/jointset/hip_l/hip_adduction_l/speed	/jointset/hip_l/hip_rotation_l/speed	/jointset/back/lumbar_extension/speed	/jointset/patellofemoral_l/patellar_flexion_l/speed	/jointset/knee_l/knee_flexion_l/speed	/jointset/knee_l/knee_adduction_l/speed	/jointset/knee_l/knee_rotation_l/speed	/jointset/ankle_l/ankle_angle_l/speed	/jointset/subtalar_l/subtalar_angle_l/speed	/forceset/tau_hip_flexion_l	/forceset/tau_hip_adduction_l	/forceset/tau_hip_rotation_l	/forceset/tau_knee_flexion_l	/forceset/tau_ankle_angle_l	/forceset/tau_subtalar_angle_l	/forceset/tau_lumbar_extension	lambda_cid13_p0	lambda_cid13_p1	lambda_cid13_p2	lambda_cid13_p3	lambda_cid13_p4	lambda_cid13_p5	lambda_cid14_p0	/jointset/ground_pelvis/pelvis_tilt/accel	/jointset/ground_pelvis/pelvis_tx/accel	/jointset/ground_pelvis/pelvis_ty/accel	/jointset/hip_l/hip_flexion_l/accel	/jointset/hip_l/hip_adduction_l/accel	/jointset/hip_l/hip_rotation_l/accel	/jointset/back/lumbar_extension/accel	/jointset/patellofemoral_l/patellar_flexion_l/accel	/jointset/knee_l/knee_flexion_l/accel	/jointset/knee_l/knee_adduction_l/accel	/jointset/knee_l/knee_rotation_l/accel	/jointset/ankle_l/ankle_angle_l/accel	/jointset/subtalar_l/subtalar_angle_l/accel	gamma_cid13_p0	gamma_cid13_p1	gamma_cid13_p2	gamma_cid13_p3	gamma_cid13_p4	gamma_cid13_p5	gamma_cid14_p0
0.5	-0.08319304738555811	-0.04129017165381986	0.8729196830590388	0.6541806705362379	-0.3108742687492098	-0.2108118607856665	-0.7535957420861825	0.5176341431897604	0.5176341431897611	-0.1334367563735008	-0.1745184385613379	-0.01732458864980717	-0.02193361936304036	-0.1250795750203168	-0.2052844177126267	-0.1497931808740449	0.8517810864937322	-0.03216709598911965	0.2197357197885128	-0.8450482981101465	0.681951680543505	0.6819516805435047	0.08993734815928812	6.017364562677003e-06	-0.006499098259163305	-0.03771030796839756	-0.2469943234708778	0.01574290210781282	-0.0003844160632674867	-0.1434223926103164	0.1151218067758229	0.06026099718535213	0.306138643059065	-7.930699464034952	-26.30831320094206	5.482525352202132	-5.719835172505798	-708.4888753059518	-89.84623364617158	-22.75176666577146	0.1031460080062997	0.4518394318468293	0.04095559065055333	-1.071439384015702	0.06799915361117152	-0.2891498736798926	1.266540522432112	-0.7456014917465303	-0.7456014917465303	-0.1622810901564091	-0.009413150997005491	0.1831634212809733	0.1337735976848629	-9.201565867286572e-10	-6.869606399545979e-08	8.107464549262671e-10	-1.528892853345488e-08	4.146917935589353e-09	3.525854710185624e-09	-1.126189322323868e-08
0.51	-0.08443863036631909	-0.04332021175265362	0.8714241019849615	0.6626438037446307	-0.3111926757255151	-0.2086292844866729	-0.7619816868428346	0.5244153503665475	0.5244153503665481	-0.1325458970081571	-0.1745189991245585	-0.01738054972276027	-0.02230421295315554	-0.1240161037900433	-0.2007022778853066	-0.1492888361393989	0.8407149870295023	-0.03151807647045912	0.2167696104568036	-0.8320357337266868	0.6741786753489074	0.674178675348906	0.08820315882420267	-0.0001039923790420987	-0.004702616509776348	-0.03641550660837851	-0.2522214431043025	0.01645726883440797	-0.0003485650591316029	-0.143883591678875	0.1159184016959541	0.06078104423923999	0.3113025439393637	-7.794394158063005	-26.51819855845652	5.470483220407133	-5.969186420940883	-710.7175892325685	-89.75633432159485	-22.64176774958552	0.1110847965051537	0.4645967968395806	0.06030491249130469	-1.143780519002913	0.06279735282796647	-0.3018376674660112	1.33435232033957	-0.8098098975870777	-0.8098098975870101	-0.1837045822005346	-0.009671550445469197	0.1764641337079797	0.1262787710470296	6.388449587820247e-10	-6.247593337347541e-08	-3.022666435309544e-09	-1.629840967303841e-08	8.777644772340478e-09	4.211907628047651e-09	-9.953028913709679e-09
0.52	-0.0856729512115839	-0.04530379134548119	0.8699345905577544	0.670992358900106	-0.3115047037062669	-0.2064766685219063	-0.7702343583708448	0.5311154955185343	0.5311154955185349	-0.1316733228815675	-0.1745202351180959	-0.01741883126183143	-0.02266206945649322	-0.1228271479210786	-0.195992316511387	-0.1485792514999656	0.8288654759102199	-0.03089129687842592	0.2137436529431114	-0.8183936523817605	0.6657392755834818	0.6657392755834826	0.08628030040848039	-0.0001290686987454317	-0.002963191482772466	-0.03516289061289526	-0.2574485627377272	0.01717163556100312	-0.0003127140549957184	-0.1443447907474337	0.1167149966160854	0.0613010912931279	0.3164664448196625	-7.663053777069898	-26.72796562866456	5.459280078676632	-6.226535553252211	-713.0316211808949	-89.6797314912229	-22.52716688722574	0.1282429357445225	0.4774037411667347	0.08200357160802077	-1.22812171502637	0.06355116828570287	-0.3011195100764893	1.392443914725407	-0.8788804059121087	-0.8788804059121087	-0.2000149062837739	0.007573533786449621	0.1717520768043587	0.1253365247777055	2.153447433370326e-09	-6.253198286855798e-08	-8.884567164990938e-09	-1.804630669510125e-08	1.310348754307792e-08	4.974703167209896e-09	-9.297696000394811e-09
0.53	-0.08689467083567605	-0.04723971936593994	0.8684531821925993	0.6792186425431876	-0.3118105453650275	-0.2043547730197845	-0.7783475989131506	0.5377281274675207	0.537728127467521	-0.1308207202362107	-0.1745214811108272	-0.01743999869328555	-0.02300757616740609	-0.1214854692573932	-0.1911803378267191	-0.1476696459944657	0.8162691651062671	-0.03027939107048848	0.2106122058013249	-0.8041648824562516	0.6566928680501009	0.6566928680501056	0.0842231921843752	-0.0001215012143042131	-0.001281089141937701	-0.03394430938530726	-0.2627515066199508	0.01804643125072159	-0.0002518915945851351	-0.1442989652739765	0.1166867562725387	0.06185192581942837	0.3215737461265939	-7.787394973017889	-26.91072101758716	5.448779627009702	-6.232958074095444	-715.163204452789	-89.54509436999217	-22.4080208609737	0.1418260825792666	0.4850336022846091	0.1003584456342809	-1.293698657210557	0.05966862089513762	-0.3226487127073479	1.451529574940497	-0.9316560609079817	-0.9316560609080188	-0.2111267496456236	-0.002856910711730221	0.1648187837639948	0.1192514744743672	3.308685367945615e-09	-5.453846219299113e-08	-1.067134265510693e-08	-1.821071724886844e-08	1.675343270064518e-08	4.944504469668163e-09	-7.909184739809191e-09
